<svg xmlns="http://www.w3.org/2000/svg" viewBox="0 0 104 33.369"> <g transform="translate(-37 -30)"> <path d="M22.337,2.63a6.275,6.275,0,0,1-.512,1.913L14.516,23.362c-2.6,6.831-6.9,10.007-11.442,10.007a2.374,2.374,0,1,1,0-4.747c2.869,0,4.679-1.776,6.148-5.021L.581,4.543A4.894,4.894,0,0,1,0,2.732,2.719,2.719,0,0,1,2.732,0a2.8,2.8,0,0,1,2.6,1.776l6.319,15.472L17.009,2.22C17.521.751,18.409,0,19.639,0A2.668,2.668,0,0,1,22.337,2.63Z" transform="translate(37 30)"></path> <path d="M75.55,3.176A12.011,12.011,0,0,1,83.815,0a12.16,12.16,0,0,1,8.3,3.176,11.054,11.054,0,0,1,3.347,8.2A10.793,10.793,0,0,1,92.114,19.6a11.984,11.984,0,0,1-8.3,3.108,12.143,12.143,0,0,1-8.3-3.108A10.893,10.893,0,0,1,72.1,11.373,11.148,11.148,0,0,1,75.55,3.176ZM78.9,16.462a6.731,6.731,0,0,0,9.8,0,7.521,7.521,0,0,0,1.913-5.123A7.521,7.521,0,0,0,88.7,6.216a6.731,6.731,0,0,0-9.8,0,7.5,7.5,0,0,0-1.878,5.123A7.5,7.5,0,0,0,78.9,16.462Z" transform="translate(-10.475 30)"></path> <path d="M162.214,18.687a2.145,2.145,0,0,1,2.049,2.152,2.1,2.1,0,0,1-2.049,2.152H147.562a1.925,1.925,0,0,1-2.118-1.913,3.245,3.245,0,0,1,.854-2.015L156.92,5.469h-9.8A2.114,2.114,0,0,1,145,3.318,2.174,2.174,0,0,1,147.118,1.2h14.55a1.9,1.9,0,0,1,2.049,1.913,3.138,3.138,0,0,1-.854,2.015L152.275,18.687Z" transform="translate(-58.476 29.21)"></path> <path d="M210.8,2.391a2.478,2.478,0,0,1,4.952,0V12.535a7.2,7.2,0,0,0,.717,3.586c.751,1.4,2.288,2.357,4.747,2.357s3.962-.956,4.747-2.357a7.178,7.178,0,0,0,.751-3.586V2.391a2.46,2.46,0,0,1,4.918,0V12.945a10.328,10.328,0,0,1-1.708,6.284c-1.708,2.288-4.747,3.484-8.675,3.484-3.894,0-6.933-1.2-8.607-3.484a9.765,9.765,0,0,1-1.776-6.284V2.391Z" transform="translate(-101.803 30)"></path> <path id="dot" d="M290.006,54.911a3.006,3.006,0,1,1,2.971-3.006A2.988,2.988,0,0,1,290.006,54.911Z" transform="translate(-151.977 -2.199)"></path> </g> </svg>